<svg width="17" height="17" viewBox="0 0 17 17" fill="none" xmlns="http://www.w3.org/2000/svg">
<g clip-path="url(#clip0_19_28)">
<path d="M0.288086 16.5249L1.41275 12.4162C0.718753 11.2136 0.354086 9.85024 0.354753 8.45224C0.356753 4.08157 3.91342 0.524902 8.28342 0.524902C10.4041 0.525569 12.3948 1.35157 13.8921 2.85024C15.3888 4.3489 16.2128 6.3409 16.2121 8.45957C16.2101 12.8309 12.6534 16.3876 8.28342 16.3876C6.95675 16.3869 5.64942 16.0542 4.49142 15.4222L0.288086 16.5249ZM4.68609 13.9869C5.80342 14.6502 6.87009 15.0476 8.28075 15.0482C11.9128 15.0482 14.8714 12.0922 14.8734 8.45824C14.8748 4.8169 11.9301 1.8649 8.28609 1.86357C4.65142 1.86357 1.69475 4.81957 1.69342 8.4529C1.69275 9.93624 2.12742 11.0469 2.85742 12.2089L2.19142 14.6409L4.68609 13.9869ZM12.2774 10.3442C12.2281 10.2616 12.0961 10.2122 11.8974 10.1129C11.6994 10.0136 10.7254 9.53424 10.5434 9.46824C10.3621 9.40224 10.2301 9.3689 10.0974 9.56757C9.96542 9.76557 9.58542 10.2122 9.47009 10.3442C9.35475 10.4762 9.23875 10.4929 9.04075 10.3936C8.84275 10.2942 8.20408 10.0856 7.44742 9.41024C6.85875 8.8849 6.46075 8.23624 6.34542 8.03757C6.23009 7.83957 6.33342 7.73224 6.43209 7.63357C6.52142 7.5449 6.63009 7.40224 6.72942 7.28624C6.83009 7.17157 6.86275 7.0889 6.92942 6.95624C6.99542 6.82424 6.96275 6.70824 6.91275 6.6089C6.86275 6.51024 6.46675 5.5349 6.30209 5.13824C6.14075 4.75224 5.97742 4.80424 5.85609 4.79824L5.47609 4.79157C5.34409 4.79157 5.12942 4.8409 4.94809 5.03957C4.76675 5.23824 4.25475 5.7169 4.25475 6.69224C4.25475 7.66757 4.96475 8.60957 5.06342 8.74157C5.16275 8.87357 6.46009 10.8749 8.44742 11.7329C8.92008 11.9369 9.28942 12.0589 9.57675 12.1502C10.0514 12.3009 10.4834 12.2796 10.8248 12.2289C11.2054 12.1722 11.9968 11.7496 12.1621 11.2869C12.3274 10.8236 12.3274 10.4269 12.2774 10.3442Z" fill="#FFFAE7"/>
</g>
<defs>
<clipPath id="clip0_19_28">
<rect width="16" height="16" fill="white" transform="translate(0.25 0.524902)"/>
</clipPath>
</defs>
</svg>
