<svg width="58" height="51" viewBox="0 0 58 51" fill="none" xmlns="http://www.w3.org/2000/svg">
<path d="M16.1279 39.2576H16.6279V38.7576V35.5017C16.6279 34.5056 16.2322 33.5503 15.5279 32.846C14.8235 32.1416 13.8682 31.7459 12.8721 31.7459H7.66279C6.66669 31.7459 5.71138 32.1416 5.00703 32.846C4.30268 33.5503 3.90698 34.5056 3.90698 35.5017V38.7576V39.2576H4.40698H16.1279ZM52.593 39.2576H53.093V38.7576V35.5017C53.093 34.5056 52.6973 33.5503 51.993 32.846C51.2886 32.1416 50.3333 31.7459 49.3372 31.7459H44.1279C43.1318 31.7459 42.1765 32.1416 41.4721 32.846C40.7678 33.5503 40.3721 34.5056 40.3721 35.5017V38.7576V39.2576H40.8721H52.593ZM34.3605 27.5366H34.8605V27.0366V23.7808C34.8605 22.7847 34.4648 21.8294 33.7604 21.125C33.0561 20.4207 32.1008 20.025 31.1047 20.025H25.8953C24.8992 20.025 23.9439 20.4207 23.2396 21.125C22.5352 21.8294 22.1395 22.7847 22.1395 23.7808V27.0366V27.5366H22.6395H34.3605ZM10.2674 13.211C13.9373 13.211 16.9302 16.2039 16.9302 19.8738C16.9302 23.5437 13.9373 26.5366 10.2674 26.5366C6.59754 26.5366 3.60465 23.5437 3.60465 19.8738C3.60465 16.2039 6.59754 13.211 10.2674 13.211ZM7.61168 17.2181C6.90733 17.9224 6.51163 18.8777 6.51163 19.8738C6.51163 20.8699 6.90733 21.8252 7.61168 22.5296C8.31603 23.2339 9.27134 23.6296 10.2674 23.6296C11.2635 23.6296 12.2189 23.2339 12.9232 22.5296C13.6276 21.8252 14.0233 20.8699 14.0233 19.8738C14.0233 18.8777 13.6276 17.9224 12.9232 17.2181C12.2189 16.5137 11.2635 16.118 10.2674 16.118C9.27134 16.118 8.31603 16.5137 7.61168 17.2181ZM1 40.711V35.5022C1.00332 33.736 1.7064 32.0431 2.95529 30.7942C4.20428 29.5452 5.89736 28.8422 7.6637 28.8389H12.8721C16.542 28.8389 19.5349 31.8318 19.5349 35.5017V40.711C19.5349 41.5158 18.8862 42.1645 18.0814 42.1645H2.45349C1.6487 42.1645 1 41.5158 1 40.711ZM40.0698 19.8738C40.0698 16.2039 43.0627 13.211 46.7326 13.211C50.4025 13.211 53.3954 16.2039 53.3954 19.8738C53.3954 23.5437 50.4025 26.5366 46.7326 26.5366C43.0627 26.5366 40.0698 23.5437 40.0698 19.8738ZM44.0768 22.5296C44.7811 23.2339 45.7365 23.6296 46.7326 23.6296C47.7287 23.6296 48.684 23.2339 49.3883 22.5296C50.0927 21.8252 50.4884 20.8699 50.4884 19.8738C50.4884 18.8777 50.0927 17.9224 49.3883 17.2181C48.684 16.5137 47.7287 16.118 46.7326 16.118C45.7365 16.118 44.7811 16.5137 44.0768 17.2181C43.3724 17.9224 42.9767 18.8777 42.9767 19.8738C42.9767 20.8699 43.3724 21.8252 44.0768 22.5296ZM44.1288 28.8389H49.3372C53.0071 28.8389 56 31.8318 56 35.5017V40.711C56 41.5158 55.3513 42.1645 54.5465 42.1645H38.9186C38.1138 42.1645 37.4651 41.5158 37.4651 40.711V35.5026C37.4683 33.7363 38.1714 32.0432 39.4204 30.7942C40.6694 29.5452 42.3625 28.8422 44.1288 28.8389ZM28.5 1.49011C32.1699 1.49011 35.1628 4.483 35.1628 8.1529C35.1628 11.8228 32.1699 14.8157 28.5 14.8157C24.8301 14.8157 21.8372 11.8228 21.8372 8.1529C21.8372 4.483 24.8301 1.49011 28.5 1.49011ZM25.8442 5.49714C25.1399 6.20149 24.7442 7.1568 24.7442 8.1529C24.7442 9.14901 25.1399 10.1043 25.8442 10.8087C26.5486 11.513 27.5039 11.9087 28.5 11.9087C29.4961 11.9087 30.4514 11.513 31.1558 10.8087C31.8601 10.1043 32.2558 9.14901 32.2558 8.1529C32.2558 7.1568 31.8601 6.20149 31.1558 5.49714C30.4514 4.79279 29.4961 4.39709 28.5 4.39709C27.5039 4.39709 26.5486 4.79279 25.8442 5.49714ZM37.7674 28.9901C37.7674 29.7949 37.1187 30.4436 36.314 30.4436H20.686C19.8813 30.4436 19.2326 29.7949 19.2326 28.9901V23.7817C19.2358 22.0154 19.9389 20.3223 21.1878 19.0733C22.4368 17.8243 24.1299 17.1212 25.8963 17.118H31.1047C34.7746 17.118 37.7674 20.1109 37.7674 23.7808V28.9901Z" fill="#181D38" stroke="white"/>
</svg>
