<svg width="19" height="15" viewBox="0 0 19 15" fill="none" xmlns="http://www.w3.org/2000/svg">
<path d="M18.4536 2.05632C18.3724 1.64759 18.1912 1.27356 17.9381 0.964576C17.8847 0.897252 17.829 0.836959 17.7685 0.776666C17.3201 0.326032 16.6908 0.0449219 16.0032 0.0449219H2.99684C2.30929 0.0449219 1.68217 0.326032 1.23164 0.776666C1.17135 0.836959 1.11559 0.897252 1.06208 0.964576C0.808848 1.27353 0.627617 1.64759 0.548727 2.05632C0.516313 2.21407 0.5 2.37709 0.5 2.5419V11.6767C0.5 12.0271 0.57432 12.364 0.70686 12.6682C0.829801 12.9586 1.01107 13.2213 1.2316 13.4417C1.2875 13.4974 1.34301 13.5487 1.40359 13.5997C1.83552 13.9574 2.39306 14.1734 2.99684 14.1734H16.0032C16.6072 14.1734 17.1672 13.9574 17.5966 13.5974C17.657 13.5487 17.7128 13.4974 17.7685 13.4417C17.989 13.2213 18.1702 12.9586 18.2957 12.6682V12.6659C18.4282 12.3617 18.5 12.0271 18.5 11.6767V2.5419C18.5 2.37709 18.484 2.21407 18.4536 2.05632ZM2.13509 1.68001C2.35815 1.45719 2.65772 1.32229 2.99684 1.32229H16.0032C16.3423 1.32229 16.6445 1.45719 16.865 1.68001C16.9044 1.7197 16.9416 1.76393 16.9744 1.80787L10.1573 7.74911C9.96929 7.91389 9.73704 7.99528 9.50002 7.99528C9.26538 7.99528 9.03328 7.91389 8.84277 7.74911L2.02832 1.80534C2.05848 1.76139 2.09564 1.7197 2.13509 1.68001ZM1.77737 11.6767V3.12718L6.71065 7.43084L1.77987 11.7299C1.77737 11.7136 1.77737 11.6953 1.77737 11.6767ZM16.0032 12.8958H2.99684C2.77602 12.8958 2.56941 12.8377 2.39306 12.7358L7.59542 8.20203L8.08111 8.62454C8.48755 8.97772 8.99616 9.1566 9.50002 9.1566C10.0065 9.1566 10.5151 8.97772 10.9215 8.62454L11.4069 8.20203L16.6072 12.7358C16.4306 12.8377 16.224 12.8958 16.0032 12.8958ZM17.2227 11.6767C17.2227 11.6953 17.2227 11.7136 17.2203 11.7299L12.2895 7.43334L17.2227 3.12947V11.6767Z" fill="#38ADDF"/>
</svg>
