<svg width="32" height="33" viewBox="0 0 32 33" fill="none" xmlns="http://www.w3.org/2000/svg">
<rect x="0.5" y="0.870117" width="31" height="31" rx="3.5" fill="#38ADDF"/>
<rect x="0.5" y="0.870117" width="31" height="31" rx="3.5" stroke="#38ADDF"/>
<path d="M16 12.7764C17.9688 12.7764 19.5938 14.4014 19.5938 16.3701C19.5938 18.3701 17.9688 19.9639 16 19.9639C14 19.9639 12.4062 18.3701 12.4062 16.3701C12.4062 14.4014 14 12.7764 16 12.7764ZM16 18.7139C17.2812 18.7139 18.3125 17.6826 18.3125 16.3701C18.3125 15.0889 17.2812 14.0576 16 14.0576C14.6875 14.0576 13.6562 15.0889 13.6562 16.3701C13.6562 17.6826 14.7188 18.7139 16 18.7139ZM20.5625 12.6514C20.5625 13.1201 20.1875 13.4951 19.7188 13.4951C19.25 13.4951 18.875 13.1201 18.875 12.6514C18.875 12.1826 19.25 11.8076 19.7188 11.8076C20.1875 11.8076 20.5625 12.1826 20.5625 12.6514ZM22.9375 13.4951C23 14.6514 23 18.1201 22.9375 19.2764C22.875 20.4014 22.625 21.3701 21.8125 22.2139C21 23.0264 20 23.2764 18.875 23.3389C17.7188 23.4014 14.25 23.4014 13.0938 23.3389C11.9688 23.2764 11 23.0264 10.1562 22.2139C9.34375 21.3701 9.09375 20.4014 9.03125 19.2764C8.96875 18.1201 8.96875 14.6514 9.03125 13.4951C9.09375 12.3701 9.34375 11.3701 10.1562 10.5576C11 9.74512 11.9688 9.49512 13.0938 9.43262C14.25 9.37012 17.7188 9.37012 18.875 9.43262C20 9.49512 21 9.74512 21.8125 10.5576C22.625 11.3701 22.875 12.3701 22.9375 13.4951ZM21.4375 20.4951C21.8125 19.5889 21.7188 17.4014 21.7188 16.3701C21.7188 15.3701 21.8125 13.1826 21.4375 12.2451C21.1875 11.6514 20.7188 11.1514 20.125 10.9326C19.1875 10.5576 17 10.6514 16 10.6514C14.9688 10.6514 12.7812 10.5576 11.875 10.9326C11.25 11.1826 10.7812 11.6514 10.5312 12.2451C10.1562 13.1826 10.25 15.3701 10.25 16.3701C10.25 17.4014 10.1562 19.5889 10.5312 20.4951C10.7812 21.1201 11.25 21.5889 11.875 21.8389C12.7812 22.2139 14.9688 22.1201 16 22.1201C17 22.1201 19.1875 22.2139 20.125 21.8389C20.7188 21.5889 21.2188 21.1201 21.4375 20.4951Z" fill="white"/>
</svg>
