<svg width="106" height="93" viewBox="0 0 106 93" fill="none" xmlns="http://www.w3.org/2000/svg">
<path d="M31.3012 0.736084H33.162L34.3812 0.928583L35.3437 1.24941L35.9212 1.63441L36.242 1.95524L36.4987 2.34024L36.6912 3.68773L37.397 9.97601L37.4612 10.9385L39.0012 11.131L41.3112 11.5802L42.9153 11.9652L44.6478 12.4785L46.7011 13.1843L48.5619 13.9543L50.1019 14.6601L51.7702 15.4943L53.2461 16.3285L54.8502 17.291L56.1977 18.1893L57.2885 18.9593L58.4435 19.7934L59.3419 20.4993L60.3685 21.3334L61.0743 21.9109L61.9727 22.6809L62.8068 23.4509L63.4485 24.0284L63.8335 24.3492V24.4776L64.0901 24.6059L66.4001 26.9159L66.8493 27.4292L67.876 28.52L68.4534 29.1617L69.0309 29.8675L69.6084 30.5092L70.1218 31.1509L71.0201 32.2417L71.8543 33.3325L72.6242 34.3592L73.5226 35.5783L74.2926 36.6691L74.9984 37.6958L75.5117 38.4658L76.2176 39.5566L77.1159 40.9683L77.8859 42.2516L78.5275 43.3424L79.3617 44.8182L80.1959 46.3582L81.2867 48.4757L81.9925 49.9515L82.955 52.1332L83.725 54.1223L84.3667 56.0473L84.6233 57.074V57.6515L84.3667 58.1648L83.9817 58.5498L83.1475 58.7423L78.5917 59.2556L73.5226 59.8973L69.9934 60.4106L66.2718 60.9881L61.9085 61.7581L58.8927 62.3356L55.4919 63.0414L52.4761 63.7473L49.2036 64.5814L46.3803 65.4156L44.327 66.0572L44.0703 66.1214L44.2628 67.2122L44.3911 68.2389V68.5597L46.8936 68.1106L53.3744 67.0197L62.9352 65.4156L68.5818 64.5173L72.1751 64.0039L75.5759 63.5548L79.6184 62.9131L86.0991 61.7581L91.6816 60.6673L95.7241 59.8331L99.1249 59.0631L101.948 58.3573L103.296 57.9723L103.873 57.9081L104.451 58.1006L104.9 58.5498L105.092 58.999V59.5765L104.579 61.7581L103.873 64.1964L103.103 66.5706L102.141 69.1372L101.435 70.8055L100.601 72.6664L99.7024 74.5272L99.0607 75.7463L98.2266 77.2222L97.649 78.1847L97.2641 78.7621L96.9432 79.3396L96.4941 79.9813L95.7882 81.008L94.7616 82.4196L94.0557 83.3179L92.6441 84.9863L92.3233 85.3713H92.1949L92.0666 85.6279L89.8849 87.8096L89.3716 88.2587L88.4733 89.0287L87.4466 89.8629L86.2916 90.6971L85.65 91.1462L84.8158 91.3387L81.2225 91.7237L77.3725 92.0445L70.3784 92.4937L67.2985 92.6862L65.8868 92.7504H58.7002L53.3102 92.5579L48.6261 92.3012L43.942 91.9804L40.6053 91.7237L35.2154 91.2746L29.1837 90.6971L24.1788 90.1837L19.5588 89.6704L14.6822 89.0929L10.6397 88.5796L8.84307 88.2587L7.36725 87.8737L6.01976 87.4246L4.73643 86.8471L3.70977 86.2696L2.81145 85.5638L2.16979 84.9221L1.65646 84.2163L1.14313 83.1896L0.822296 81.8421V80.238L1.01479 79.3396L1.39979 78.5696L1.97729 77.9921L2.55478 77.6713H2.68311L2.55478 77.2222L1.91312 76.003L1.27146 74.5913L0.693963 72.8589L0.501465 71.8964V70.613L0.75813 69.7789L1.14313 69.1372L1.65646 68.5597L2.49062 67.9181L3.83811 67.1481L5.05726 66.6347L6.40475 66.2497L7.55974 66.0572H8.84307L9.74139 66.2497L10.6397 66.6989L11.0889 67.0839V67.2122H11.2172L11.6664 67.9822L11.8589 68.6239L11.923 69.2656L11.7947 70.0356L11.4097 70.8055L10.8322 71.383L9.80556 71.9605L9.03557 72.4097H8.90723V73.308L9.09973 74.463L9.3564 75.233L9.42056 75.5538L11.2814 75.0405L15.388 74.0139L20.0721 72.8589L22.9596 72.2172L25.7188 71.7039L33.0337 70.4847L41.632 69.0089H41.7603L41.4395 67.2122H41.3112L39.3862 68.0464L38.4237 68.5597L37.5253 68.9447L37.2045 69.0089L36.5629 68.8164L36.242 68.5597L35.9854 68.1747L35.857 67.7897L35.9212 67.2122L36.6912 65.5439L37.5895 63.6831L38.2312 62.3998L39.1295 60.8598L39.8353 59.769L40.2845 59.0631L40.477 58.7423V58.0365L40.3487 56.5607L39.5145 56.4323L36.9479 56.1757H35.6004L34.4454 56.304L33.2904 56.6248L32.1996 57.2023L31.0446 58.0365L29.8896 58.7423L28.7987 59.3198L27.5796 59.8331L26.0396 60.3465L24.3713 60.7315L22.3821 60.9881H19.6872L18.0188 60.7315L17.2488 60.4748L16.7997 60.0898L16.6072 59.769L16.543 59.5123V59.0631L16.7997 58.4215L17.6338 56.9457L18.2113 55.919L18.9813 54.4432L19.623 53.224L20.393 51.684L21.2271 49.8874L22.1255 47.8982L23.1521 45.4599L24.0505 43.2141L24.7563 41.3533L25.7188 38.7866L26.3604 36.8616L27.2588 34.2308L28.3496 30.7659L29.3121 27.5575L30.4029 23.7717L31.7504 18.8951L32.7129 15.4943L33.547 12.9277L34.0604 11.8368L34.1887 11.6443H32.9054L31.3654 11.8368L30.0179 12.1577L28.7346 12.6068L27.7079 13.1202L26.2963 14.0185L25.9113 14.1468L25.3338 14.0826L24.8846 13.826L24.5638 13.441L24.3713 12.8635L24.4354 12.1577L24.7563 11.131L25.2696 10.1043L25.8471 9.01352L26.5529 7.79436H25.5904L23.1521 7.60186L22.1255 7.40937L21.6121 7.08853L21.3555 6.70354L21.2271 6.38271V5.86938L21.548 5.22772L22.2538 4.52189L23.088 3.88023L24.3071 3.11023L25.7829 2.34024L27.2588 1.69858L28.6062 1.24941L30.2746 0.864416L31.3012 0.736084ZM31.4296 3.43106L30.2104 3.62356L28.6704 4.07273L27.0663 4.71439L26.4246 5.03522V5.09938L28.0288 5.35605L29.0554 5.67688L29.5687 5.99771L29.8896 6.51104V7.3452L29.2479 8.56436L28.6062 9.65518L28.7987 9.71935L30.2104 9.33435L31.6221 9.07769L33.0337 8.94935H34.5095L34.3812 7.3452L33.9962 3.88023L33.932 3.62356L33.4829 3.49523L32.9054 3.43106H31.4296ZM39.707 14.0185L40.2203 14.981L40.7978 16.0076L41.5678 17.4835L42.3378 19.0234L43.3003 21.2051L44.3911 24.0284L45.2895 26.6592L46.0595 29.3542L46.7011 31.985L47.1503 34.3592L47.4711 36.605L47.6636 38.53L47.7919 40.7758V43.2783L47.6636 45.2674L47.4711 47.1282L47.2144 48.7965L46.7653 50.914L46.1236 53.1598L45.5461 54.764L44.9686 56.1115L44.1986 57.7798L43.3003 59.384L41.9528 61.4373L41.1828 62.6564L40.2845 64.3248L40.1562 64.7098L40.477 64.6456L42.5945 63.8114L45.482 62.8489L48.1128 62.0789L51.5777 61.1806L54.5936 60.4748L57.6094 59.8331L60.8818 59.1915L64.9243 58.4856L69.7368 57.7156L75.2551 56.9457L80.0034 56.3682L81.2867 56.2398L81.5433 56.1115L80.5809 53.6732L79.6825 51.6199L78.5275 49.1815L77.565 47.3207L76.6026 45.5241L75.7684 44.0483L74.6776 42.1874L73.1376 39.7491L71.7901 37.76L71.0201 36.6691L70.1859 35.5141L69.5443 34.68L68.7101 33.5892L67.876 32.5625L67.2985 31.8567L66.5285 30.9584L66.0793 30.445L65.3735 29.675L64.9243 29.1617L63.8976 28.0709L63.3843 27.4934H63.256L63.1277 27.2367L62.1652 26.3384L61.5235 25.6967L61.0102 25.2476L60.176 24.4776L59.3419 23.7717L58.636 23.1942L57.6094 22.3601L56.3902 21.4618L55.2994 20.6918L53.7594 19.6651L51.9627 18.5743L50.4228 17.7401L48.4978 16.7776L46.1878 15.8151L44.1986 15.1093L41.9528 14.4676L39.9637 14.0185H39.707ZM35.3437 16.2643L34.7662 18.1893L33.8679 21.3976L33.0979 24.1567L31.6221 29.29L30.2104 33.8458L29.3762 36.4125L28.4779 39.0433L27.5796 41.5458L26.5529 44.2407L25.4621 46.9357L24.4996 49.1815L23.3446 51.7482L22.1255 54.2507L21.3555 55.7907L20.7138 56.9457L20.3288 57.6515L20.0721 58.1006V58.229L20.5855 58.2931H21.933L23.2805 58.1648L24.6921 57.9081L26.2321 57.459L27.1946 57.074L28.2854 56.5607L29.4404 55.8548L30.4671 55.149L31.3654 54.6357L32.3921 54.2507L33.3545 53.994L34.4454 53.8015L35.857 53.6732H38.7445L40.0278 53.7373L40.092 53.5448L37.782 35.1292L35.7287 18.6384L35.472 16.521L35.3437 16.2643ZM38.167 16.6493L38.2953 17.8685L38.937 23.1301L40.2845 33.9742L41.1187 40.5833L42.2095 49.1815L42.6586 52.7748L42.787 54.0582L42.9153 54.2507L43.172 53.609L43.8778 51.4915L44.3911 49.4382L44.7761 47.3849L45.0328 45.1391L45.097 44.1766L45.1611 41.8666L45.097 39.8133L44.9686 38.0808L44.6478 35.3858L44.1345 32.6267L43.6211 30.3809L42.9795 28.0709L42.402 26.2742L41.8886 24.7342L41.1187 22.7451L40.477 21.2051L39.8995 19.9218L39.0012 18.061L38.2953 16.7135L38.167 16.6493ZM101.82 61.1806L99.4457 61.7581L94.6974 62.7848L90.9758 63.5548L87.575 64.1964L83.7892 64.9023L80.9017 65.4156L76.1534 66.1856L72.9451 66.6347L69.9934 67.0197L64.7318 67.8539L30.1462 73.693L25.1413 74.5272L22.5746 75.0405L19.3022 75.8105L15.6447 76.7088L12.1155 77.6072L8.26557 78.6338L5.63476 79.4038L3.90227 79.9813L3.51728 80.238L3.58144 80.3663L4.73643 80.3021L7.11058 80.1096L11.6664 79.5963L17.0563 78.8905L23.3446 77.9921L38.6162 75.6822L43.942 74.848L58.8285 72.538L64.6676 71.6397L72.8167 70.4205L80.0034 69.3939L85.8425 68.6239L92.5158 67.8539L95.4674 67.5972L97.5849 67.4689L99.8307 67.4047L100.023 67.1481L100.857 64.7739L101.371 63.1698L101.884 61.3731L101.82 61.1806ZM7.81641 68.7522L6.78975 68.9447L5.76309 69.2656L4.73643 69.7147L3.70977 70.3564L3.26061 70.8055L3.19644 70.998V71.7039L3.51728 72.923L4.15894 74.463L4.92893 76.003L5.31393 76.6447L5.50643 76.7088L6.78975 76.3238L6.85392 76.1313L6.34059 74.3347L6.21225 73.5647V72.3455L6.46892 71.383L6.91808 70.6772L7.49558 70.1639L8.84307 69.3939L9.09973 69.1372L8.9714 68.8806L8.71474 68.7522H7.81641ZM98.6115 70.0356L95.5316 70.228L90.8474 70.6772L86.5483 71.1905L82.57 71.7039L76.9875 72.4739L68.6459 73.693L33.3545 79.1471L26.4888 80.1738L21.7405 80.8796L16.7355 81.5855L11.2814 82.2913L7.23891 82.7404L4.28727 82.9971L4.15894 83.1255L4.6081 83.5746L5.44226 84.1521L6.53309 84.7296L8.13724 85.3071L9.74139 85.6921L11.7947 86.0129L18.6605 86.8471L24.3713 87.4887L33.3545 88.3871L40.6695 89.0287L45.7386 89.4137L52.0911 89.7987L54.7861 89.9271L58.9569 90.0554H65.7585L68.5176 89.9271L73.3301 89.6062L80.9659 89.1571L83.1475 88.9646L84.11 88.8362L84.6233 88.5796L85.8425 87.6812L86.5483 87.1038L87.0616 86.7188V86.5904L87.3183 86.4621L88.0883 85.7563L88.6016 85.3071L89.8849 84.0238V83.8954H90.0133L90.4624 83.3821L91.1683 82.6121L91.7458 81.9063L92.5799 80.8796L93.2216 79.9813L93.9274 79.0188L94.5691 78.0563L95.3391 76.8372L95.9807 75.7463L96.6224 74.5913L97.5849 72.7305L98.4832 70.8697L98.7399 70.228V70.0356H98.6115Z" fill="#38ADDF"/>
</svg>
