<svg width="105" height="93" viewBox="0 0 105 93" fill="none" xmlns="http://www.w3.org/2000/svg">
<path d="M30.8012 0.236084H32.662L33.8812 0.428583L34.8437 0.749413L35.4212 1.13441L35.742 1.45524L35.9987 1.84024L36.1912 3.18773L36.897 9.47601L36.9612 10.4385L38.5012 10.631L40.8112 11.0802L42.4153 11.4652L44.1478 11.9785L46.2011 12.6843L48.0619 13.4543L49.6019 14.1601L51.2702 14.9943L52.7461 15.8285L54.3502 16.791L55.6977 17.6893L56.7885 18.4593L57.9435 19.2934L58.8419 19.9993L59.8685 20.8334L60.5743 21.4109L61.4727 22.1809L62.3068 22.9509L62.9485 23.5284L63.3335 23.8492V23.9776L63.5901 24.1059L65.9001 26.4159L66.3493 26.9292L67.376 28.02L67.9534 28.6617L68.5309 29.3675L69.1084 30.0092L69.6218 30.6509L70.5201 31.7417L71.3543 32.8325L72.1242 33.8592L73.0226 35.0783L73.7926 36.1691L74.4984 37.1958L75.0117 37.9658L75.7176 39.0566L76.6159 40.4683L77.3859 41.7516L78.0275 42.8424L78.8617 44.3182L79.6959 45.8582L80.7867 47.9757L81.4925 49.4515L82.455 51.6332L83.225 53.6223L83.8667 55.5473L84.1233 56.574V57.1515L83.8667 57.6648L83.4817 58.0498L82.6475 58.2423L78.0917 58.7556L73.0226 59.3973L69.4934 59.9106L65.7718 60.4881L61.4085 61.2581L58.3927 61.8356L54.9919 62.5414L51.9761 63.2473L48.7036 64.0814L45.8803 64.9156L43.827 65.5572L43.5703 65.6214L43.7628 66.7122L43.8911 67.7389V68.0597L46.3936 67.6106L52.8744 66.5197L62.4352 64.9156L68.0818 64.0173L71.6751 63.5039L75.0759 63.0548L79.1184 62.4131L85.5991 61.2581L91.1816 60.1673L95.2241 59.3331L98.6249 58.5631L101.448 57.8573L102.796 57.4723L103.373 57.4081L103.951 57.6006L104.4 58.0498L104.592 58.499V59.0765L104.079 61.2581L103.373 63.6964L102.603 66.0706L101.641 68.6372L100.935 70.3055L100.101 72.1664L99.2024 74.0272L98.5607 75.2463L97.7266 76.7222L97.149 77.6847L96.7641 78.2621L96.4432 78.8396L95.9941 79.4813L95.2882 80.508L94.2616 81.9196L93.5557 82.8179L92.1441 84.4863L91.8233 84.8713H91.6949L91.5666 85.1279L89.3849 87.3096L88.8716 87.7587L87.9733 88.5287L86.9466 89.3629L85.7916 90.1971L85.15 90.6462L84.3158 90.8387L80.7225 91.2237L76.8725 91.5445L69.8784 91.9937L66.7985 92.1862L65.3868 92.2504H58.2002L52.8102 92.0579L48.1261 91.8012L43.442 91.4804L40.1053 91.2237L34.7154 90.7746L28.6837 90.1971L23.6788 89.6837L19.0588 89.1704L14.1822 88.5929L10.1397 88.0796L8.34307 87.7587L6.86725 87.3737L5.51976 86.9246L4.23643 86.3471L3.20977 85.7696L2.31145 85.0638L1.66979 84.4221L1.15646 83.7163L0.643127 82.6896L0.322296 81.3421V79.738L0.514794 78.8396L0.899791 78.0696L1.47729 77.4921L2.05478 77.1713H2.18311L2.05478 76.7222L1.41312 75.503L0.771459 74.0913L0.193963 72.3589L0.00146484 71.3964V70.113L0.25813 69.2789L0.643127 68.6372L1.15646 68.0597L1.99062 67.4181L3.33811 66.6481L4.55726 66.1347L5.90475 65.7497L7.05974 65.5572H8.34307L9.24139 65.7497L10.1397 66.1989L10.5889 66.5839V66.7122H10.7172L11.1664 67.4822L11.3589 68.1239L11.423 68.7656L11.2947 69.5356L10.9097 70.3055L10.3322 70.883L9.30556 71.4605L8.53557 71.9097H8.40723V72.808L8.59973 73.963L8.8564 74.733L8.92056 75.0538L10.7814 74.5405L14.888 73.5139L19.5721 72.3589L22.4596 71.7172L25.2188 71.2039L32.5337 69.9847L41.132 68.5089H41.2603L40.9395 66.7122H40.8112L38.8862 67.5464L37.9237 68.0597L37.0253 68.4447L36.7045 68.5089L36.0629 68.3164L35.742 68.0597L35.4854 67.6747L35.357 67.2897L35.4212 66.7122L36.1912 65.0439L37.0895 63.1831L37.7312 61.8998L38.6295 60.3598L39.3353 59.269L39.7845 58.5631L39.977 58.2423V57.5365L39.8487 56.0607L39.0145 55.9323L36.4479 55.6757H35.1004L33.9454 55.804L32.7904 56.1248L31.6996 56.7023L30.5446 57.5365L29.3896 58.2423L28.2987 58.8198L27.0796 59.3331L25.5396 59.8465L23.8713 60.2315L21.8821 60.4881H19.1872L17.5188 60.2315L16.7488 59.9748L16.2997 59.5898L16.1072 59.269L16.043 59.0123V58.5631L16.2997 57.9215L17.1338 56.4457L17.7113 55.419L18.4813 53.9432L19.123 52.724L19.893 51.184L20.7271 49.3874L21.6255 47.3982L22.6521 44.9599L23.5505 42.7141L24.2563 40.8533L25.2188 38.2866L25.8604 36.3616L26.7588 33.7308L27.8496 30.2659L28.8121 27.0575L29.9029 23.2717L31.2504 18.3951L32.2129 14.9943L33.047 12.4277L33.5604 11.3368L33.6887 11.1443H32.4054L30.8654 11.3368L29.5179 11.6577L28.2346 12.1068L27.2079 12.6202L25.7963 13.5185L25.4113 13.6468L24.8338 13.5826L24.3846 13.326L24.0638 12.941L23.8713 12.3635L23.9354 11.6577L24.2563 10.631L24.7696 9.60435L25.3471 8.51352L26.0529 7.29436H25.0904L22.6521 7.10186L21.6255 6.90937L21.1121 6.58853L20.8555 6.20354L20.7271 5.88271V5.36938L21.048 4.72772L21.7538 4.02189L22.588 3.38023L23.8071 2.61023L25.2829 1.84024L26.7588 1.19858L28.1062 0.749413L29.7746 0.364416L30.8012 0.236084ZM30.9296 2.93106L29.7104 3.12356L28.1704 3.57273L26.5663 4.21439L25.9246 4.53522V4.59938L27.5288 4.85605L28.5554 5.17688L29.0687 5.49771L29.3896 6.01104V6.8452L28.7479 8.06436L28.1062 9.15518L28.2987 9.21935L29.7104 8.83435L31.1221 8.57769L32.5337 8.44935H34.0095L33.8812 6.8452L33.4962 3.38023L33.432 3.12356L32.9829 2.99523L32.4054 2.93106H30.9296ZM39.207 13.5185L39.7203 14.481L40.2978 15.5076L41.0678 16.9835L41.8378 18.5234L42.8003 20.7051L43.8911 23.5284L44.7895 26.1592L45.5595 28.8542L46.2011 31.485L46.6503 33.8592L46.9711 36.105L47.1636 38.03L47.2919 40.2758V42.7783L47.1636 44.7674L46.9711 46.6282L46.7144 48.2965L46.2653 50.414L45.6236 52.6598L45.0461 54.264L44.4686 55.6115L43.6986 57.2798L42.8003 58.884L41.4528 60.9373L40.6828 62.1564L39.7845 63.8248L39.6562 64.2098L39.977 64.1456L42.0945 63.3114L44.982 62.3489L47.6128 61.5789L51.0777 60.6806L54.0936 59.9748L57.1094 59.3331L60.3818 58.6915L64.4243 57.9856L69.2368 57.2156L74.7551 56.4457L79.5034 55.8682L80.7867 55.7398L81.0433 55.6115L80.0809 53.1732L79.1825 51.1199L78.0275 48.6815L77.065 46.8207L76.1026 45.0241L75.2684 43.5483L74.1776 41.6874L72.6376 39.2491L71.2901 37.26L70.5201 36.1691L69.6859 35.0141L69.0443 34.18L68.2101 33.0892L67.376 32.0625L66.7985 31.3567L66.0285 30.4584L65.5793 29.945L64.8735 29.175L64.4243 28.6617L63.3976 27.5709L62.8843 26.9934H62.756L62.6277 26.7367L61.6652 25.8384L61.0235 25.1967L60.5102 24.7476L59.676 23.9776L58.8419 23.2717L58.136 22.6942L57.1094 21.8601L55.8902 20.9618L54.7994 20.1918L53.2594 19.1651L51.4627 18.0743L49.9228 17.2401L47.9978 16.2776L45.6878 15.3151L43.6986 14.6093L41.4528 13.9676L39.4637 13.5185H39.207ZM34.8437 15.7643L34.2662 17.6893L33.3679 20.8976L32.5979 23.6567L31.1221 28.79L29.7104 33.3458L28.8762 35.9125L27.9779 38.5433L27.0796 41.0458L26.0529 43.7407L24.9621 46.4357L23.9996 48.6815L22.8446 51.2482L21.6255 53.7507L20.8555 55.2907L20.2138 56.4457L19.8288 57.1515L19.5721 57.6006V57.729L20.0855 57.7931H21.433L22.7805 57.6648L24.1921 57.4081L25.7321 56.959L26.6946 56.574L27.7854 56.0607L28.9404 55.3548L29.9671 54.649L30.8654 54.1357L31.8921 53.7507L32.8545 53.494L33.9454 53.3015L35.357 53.1732H38.2445L39.5278 53.2373L39.592 53.0448L37.282 34.6292L35.2287 18.1384L34.972 16.021L34.8437 15.7643ZM37.667 16.1493L37.7953 17.3685L38.437 22.6301L39.7845 33.4742L40.6187 40.0833L41.7095 48.6815L42.1586 52.2748L42.287 53.5582L42.4153 53.7507L42.672 53.109L43.3778 50.9915L43.8911 48.9382L44.2761 46.8849L44.5328 44.6391L44.597 43.6766L44.6611 41.3666L44.597 39.3133L44.4686 37.5808L44.1478 34.8858L43.6345 32.1267L43.1211 29.8809L42.4795 27.5709L41.902 25.7742L41.3886 24.2342L40.6187 22.2451L39.977 20.7051L39.3995 19.4218L38.5012 17.561L37.7953 16.2135L37.667 16.1493ZM101.32 60.6806L98.9457 61.2581L94.1974 62.2848L90.4758 63.0548L87.075 63.6964L83.2892 64.4023L80.4017 64.9156L75.6534 65.6856L72.4451 66.1347L69.4934 66.5197L64.2318 67.3539L29.6462 73.193L24.6413 74.0272L22.0746 74.5405L18.8022 75.3105L15.1447 76.2088L11.6155 77.1072L7.76557 78.1338L5.13476 78.9038L3.40227 79.4813L3.01728 79.738L3.08144 79.8663L4.23643 79.8021L6.61058 79.6096L11.1664 79.0963L16.5563 78.3905L22.8446 77.4921L38.1162 75.1822L43.442 74.348L58.3285 72.038L64.1676 71.1397L72.3167 69.9205L79.5034 68.8939L85.3425 68.1239L92.0158 67.3539L94.9674 67.0972L97.0849 66.9689L99.3307 66.9047L99.5232 66.6481L100.357 64.2739L100.871 62.6698L101.384 60.8731L101.32 60.6806ZM7.31641 68.2522L6.28975 68.4447L5.26309 68.7656L4.23643 69.2147L3.20977 69.8564L2.76061 70.3055L2.69644 70.498V71.2039L3.01728 72.423L3.65894 73.963L4.42893 75.503L4.81393 76.1447L5.00643 76.2088L6.28975 75.8238L6.35392 75.6313L5.84059 73.8347L5.71225 73.0647V71.8455L5.96892 70.883L6.41808 70.1772L6.99558 69.6639L8.34307 68.8939L8.59973 68.6372L8.4714 68.3806L8.21474 68.2522H7.31641ZM98.1115 69.5356L95.0316 69.728L90.3474 70.1772L86.0483 70.6905L82.07 71.2039L76.4875 71.9739L68.1459 73.193L32.8545 78.6471L25.9888 79.6738L21.2405 80.3796L16.2355 81.0855L10.7814 81.7913L6.73891 82.2404L3.78727 82.4971L3.65894 82.6255L4.1081 83.0746L4.94226 83.6521L6.03309 84.2296L7.63724 84.8071L9.24139 85.1921L11.2947 85.5129L18.1605 86.3471L23.8713 86.9887L32.8545 87.8871L40.1695 88.5287L45.2386 88.9137L51.5911 89.2987L54.2861 89.4271L58.4569 89.5554H65.2585L68.0176 89.4271L72.8301 89.1062L80.4659 88.6571L82.6475 88.4646L83.61 88.3362L84.1233 88.0796L85.3425 87.1812L86.0483 86.6038L86.5616 86.2188V86.0904L86.8183 85.9621L87.5883 85.2563L88.1016 84.8071L89.3849 83.5238V83.3954H89.5133L89.9624 82.8821L90.6683 82.1121L91.2458 81.4063L92.0799 80.3796L92.7216 79.4813L93.4274 78.5188L94.0691 77.5563L94.8391 76.3372L95.4807 75.2463L96.1224 74.0913L97.0849 72.2305L97.9832 70.3697L98.2399 69.728V69.5356H98.1115Z" fill="#FFFAE7"/>
</svg>
