<svg width="19" height="19" viewBox="0 0 19 19" fill="none" xmlns="http://www.w3.org/2000/svg">
<g clip-path="url(#clip0_19_1545)">
<path d="M0.720703 18.6094L1.98595 13.9871C1.2052 12.6341 0.794953 11.1004 0.795703 9.52763C0.797953 4.61062 4.7992 0.609375 9.71545 0.609375C12.1012 0.610125 14.3407 1.53938 16.0252 3.22537C17.709 4.91138 18.636 7.15238 18.6352 9.53588C18.633 14.4536 14.6317 18.4549 9.71545 18.4549C8.22295 18.4541 6.7522 18.0799 5.44945 17.3689L0.720703 18.6094ZM5.66845 15.7541C6.92545 16.5004 8.12545 16.9474 9.71245 16.9481C13.7985 16.9481 17.127 13.6226 17.1292 9.53437C17.1307 5.43787 13.818 2.11687 9.71845 2.11537C5.62945 2.11537 2.3032 5.44088 2.3017 9.52838C2.30095 11.1971 2.78995 12.4466 3.6112 13.7539L2.86195 16.4899L5.66845 15.7541ZM14.2087 11.6561C14.1532 11.5631 14.0047 11.5076 13.7812 11.3959C13.5585 11.2841 12.4627 10.7449 12.258 10.6706C12.054 10.5964 11.9055 10.5589 11.7562 10.7824C11.6077 11.0051 11.1802 11.5076 11.0505 11.6561C10.9207 11.8046 10.7902 11.8234 10.5675 11.7116C10.3447 11.5999 9.6262 11.3651 8.77495 10.6054C8.1127 10.0144 7.66495 9.28463 7.5352 9.06112C7.40545 8.83838 7.5217 8.71762 7.6327 8.60663C7.7332 8.50688 7.85545 8.34637 7.9672 8.21588C8.08045 8.08687 8.1172 7.99388 8.1922 7.84463C8.26645 7.69613 8.2297 7.56563 8.17345 7.45388C8.1172 7.34288 7.6717 6.24563 7.48645 5.79938C7.30495 5.36513 7.1212 5.42362 6.9847 5.41687L6.5572 5.40938C6.4087 5.40938 6.1672 5.46487 5.9632 5.68837C5.7592 5.91187 5.1832 6.45038 5.1832 7.54763C5.1832 8.64488 5.98195 9.70463 6.09295 9.85312C6.2047 10.0016 7.6642 12.2531 9.89995 13.2184C10.4317 13.4479 10.8472 13.5851 11.1705 13.6879C11.7045 13.8574 12.1905 13.8334 12.5745 13.7764C13.0027 13.7126 13.893 13.2371 14.079 12.7166C14.265 12.1954 14.265 11.7491 14.2087 11.6561Z" fill="#38ADDF"/>
</g>
<defs>
<clipPath id="clip0_19_1545">
<rect width="18" height="18" fill="white" transform="translate(0.679688 0.609375)"/>
</clipPath>
</defs>
</svg>
