<svg width="56" height="42" viewBox="0 0 56 42" fill="none" xmlns="http://www.w3.org/2000/svg">
<path d="M15.6279 38.2674H16.1279V37.7674V34.5116C16.1279 33.5155 15.7322 32.5602 15.0279 31.8559C14.3235 31.1515 13.3682 30.7558 12.3721 30.7558H7.16279C6.16669 30.7558 5.21138 31.1515 4.50703 31.8559C3.80268 32.5602 3.40698 33.5155 3.40698 34.5116V37.7674V38.2674H3.90698H15.6279ZM52.093 38.2674H52.593V37.7674V34.5116C52.593 33.5155 52.1973 32.5602 51.493 31.8559C50.7886 31.1515 49.8333 30.7558 48.8372 30.7558H43.6279C42.6318 30.7558 41.6765 31.1515 40.9721 31.8559C40.2678 32.5602 39.8721 33.5155 39.8721 34.5116V37.7674V38.2674H40.3721H52.093ZM33.8605 26.5465H34.3605V26.0465V22.7907C34.3605 21.7946 33.9648 20.8393 33.2604 20.1349C32.5561 19.4306 31.6008 19.0349 30.6047 19.0349H25.3953C24.3992 19.0349 23.4439 19.4306 22.7396 20.1349C22.0352 20.8393 21.6395 21.7946 21.6395 22.7907V26.0465V26.5465H22.1395H33.8605ZM9.76744 12.2209C13.4373 12.2209 16.4302 15.2138 16.4302 18.8837C16.4302 22.5536 13.4373 25.5465 9.76744 25.5465C6.09754 25.5465 3.10465 22.5536 3.10465 18.8837C3.10465 15.2138 6.09754 12.2209 9.76744 12.2209ZM7.11168 16.228C6.40733 16.9323 6.01163 17.8876 6.01163 18.8837C6.01163 19.8798 6.40733 20.8351 7.11168 21.5395C7.81603 22.2438 8.77134 22.6395 9.76744 22.6395C10.7635 22.6395 11.7189 22.2438 12.4232 21.5395C13.1276 20.8351 13.5233 19.8798 13.5233 18.8837C13.5233 17.8876 13.1276 16.9323 12.4232 16.228C11.7189 15.5236 10.7635 15.1279 9.76744 15.1279C8.77134 15.1279 7.81603 15.5236 7.11168 16.228ZM0.5 39.7209V34.5121C0.503322 32.7459 1.2064 31.053 2.45529 29.8041C3.70428 28.5551 5.39736 27.852 7.1637 27.8488H12.3721C16.042 27.8488 19.0349 30.8417 19.0349 34.5116V39.7209C19.0349 40.5257 18.3862 41.1744 17.5814 41.1744H1.95349C1.1487 41.1744 0.5 40.5257 0.5 39.7209ZM39.5698 18.8837C39.5698 15.2138 42.5627 12.2209 46.2326 12.2209C49.9025 12.2209 52.8954 15.2138 52.8954 18.8837C52.8954 22.5536 49.9025 25.5465 46.2326 25.5465C42.5627 25.5465 39.5698 22.5536 39.5698 18.8837ZM43.5768 21.5395C44.2811 22.2438 45.2365 22.6395 46.2326 22.6395C47.2287 22.6395 48.184 22.2438 48.8883 21.5395C49.5927 20.8351 49.9884 19.8798 49.9884 18.8837C49.9884 17.8876 49.5927 16.9323 48.8883 16.228C48.184 15.5236 47.2287 15.1279 46.2326 15.1279C45.2365 15.1279 44.2811 15.5236 43.5768 16.228C42.8724 16.9323 42.4767 17.8876 42.4767 18.8837C42.4767 19.8798 42.8724 20.8351 43.5768 21.5395ZM43.6288 27.8488H48.8372C52.5071 27.8488 55.5 30.8417 55.5 34.5116V39.7209C55.5 40.5257 54.8513 41.1744 54.0465 41.1744H38.4186C37.6138 41.1744 36.9651 40.5257 36.9651 39.7209V34.5125C36.9683 32.7462 37.6714 31.0531 38.9204 29.8041C40.1694 28.5551 41.8625 27.852 43.6288 27.8488ZM28 0.5C31.6699 0.5 34.6628 3.49289 34.6628 7.16279C34.6628 10.8327 31.6699 13.8256 28 13.8256C24.3301 13.8256 21.3372 10.8327 21.3372 7.16279C21.3372 3.49289 24.3301 0.5 28 0.5ZM25.3442 4.50703C24.6399 5.21138 24.2442 6.16669 24.2442 7.16279C24.2442 8.15889 24.6399 9.1142 25.3442 9.81855C26.0486 10.5229 27.0039 10.9186 28 10.9186C28.9961 10.9186 29.9514 10.5229 30.6558 9.81855C31.3601 9.1142 31.7558 8.15889 31.7558 7.16279C31.7558 6.16669 31.3601 5.21138 30.6558 4.50703C29.9514 3.80268 28.9961 3.40698 28 3.40698C27.0039 3.40698 26.0486 3.80268 25.3442 4.50703ZM37.2674 28C37.2674 28.8048 36.6187 29.4535 35.814 29.4535H20.186C19.3813 29.4535 18.7326 28.8048 18.7326 28V22.7916C18.7358 21.0253 19.4389 19.3322 20.6878 18.0832C21.9368 16.8342 23.6299 16.1311 25.3963 16.1279H30.6047C34.2746 16.1279 37.2674 19.1208 37.2674 22.7907V28Z" fill="#181D38" stroke="white"/>
</svg>
