<svg width="90" height="19" viewBox="0 0 90 19" fill="none" xmlns="http://www.w3.org/2000/svg">
<mask id="mask0_19_1102" style="mask-type:luminance" maskUnits="userSpaceOnUse" x="0" y="0" width="18" height="19">
<path d="M18 0.919922H0V18.9199H18V0.919922Z" fill="white"/>
</mask>
<g mask="url(#mask0_19_1102)">
<path d="M8.7765 15.631L4.55936 17.8475C4.45311 17.9032 4.33337 17.9281 4.2137 17.9194C4.09404 17.9107 3.97921 17.8686 3.88221 17.7979C3.78522 17.7273 3.70993 17.6309 3.66486 17.5197C3.6198 17.4085 3.60676 17.2868 3.62722 17.1687L4.43336 12.4758C4.45104 12.373 4.44343 12.2674 4.41117 12.1681C4.37891 12.0689 4.32298 11.979 4.24822 11.9062L0.83593 8.58137C0.749979 8.49765 0.689168 8.39156 0.660381 8.27507C0.631593 8.1586 0.635975 8.03639 0.673033 7.92228C0.71009 7.80816 0.778343 7.7067 0.87007 7.62936C0.961798 7.55201 1.07334 7.50189 1.19207 7.48465L5.9055 6.79937C6.00871 6.78454 6.10676 6.74485 6.19119 6.6837C6.27564 6.62256 6.34395 6.54179 6.39022 6.44837L8.49879 2.17722C8.55197 2.0699 8.63409 1.97958 8.73585 1.91643C8.83763 1.85328 8.95501 1.81982 9.07479 1.81982C9.19455 1.81982 9.31195 1.85328 9.41372 1.91643C9.51549 1.97958 9.5976 2.0699 9.65079 2.17722L11.7606 6.44708C11.8068 6.54033 11.8749 6.621 11.9591 6.68215C12.0433 6.74328 12.1411 6.78306 12.2441 6.79808L16.9575 7.48337C17.0762 7.50061 17.1878 7.55073 17.2795 7.62807C17.3713 7.70541 17.4394 7.80688 17.4766 7.921C17.5136 8.03511 17.518 8.15731 17.4892 8.27379C17.4604 8.39027 17.3996 8.49637 17.3137 8.58007L13.9027 11.9049C13.8281 11.9776 13.7723 12.0673 13.74 12.1662C13.7078 12.2652 13.7001 12.3706 13.7175 12.4732L14.5237 17.1674C14.5443 17.2858 14.5313 17.4076 14.4861 17.519C14.4411 17.6304 14.3657 17.7269 14.2685 17.7976C14.1713 17.8684 14.0562 17.9104 13.9362 17.9189C13.8164 17.9275 13.6965 17.9023 13.5903 17.8462L9.37436 15.6297C9.28216 15.5812 9.17958 15.5559 9.07543 15.5559C8.97129 15.5559 8.8687 15.5812 8.7765 15.6297V15.631Z" fill="#FAFAFA"/>
</g>
<mask id="mask1_19_1102" style="mask-type:luminance" maskUnits="userSpaceOnUse" x="0" y="0" width="18" height="19">
<path d="M18 0.919922H0V18.9199H18V0.919922Z" fill="white"/>
</mask>
<g mask="url(#mask1_19_1102)">
<path d="M8.7765 15.631L4.55936 17.8475C4.45311 17.9032 4.33337 17.9281 4.2137 17.9194C4.09404 17.9107 3.97921 17.8686 3.88221 17.7979C3.78522 17.7273 3.70993 17.6309 3.66486 17.5197C3.6198 17.4085 3.60676 17.2868 3.62722 17.1687L4.43336 12.4758C4.45104 12.373 4.44343 12.2674 4.41117 12.1681C4.37891 12.0689 4.32298 11.979 4.24822 11.9062L0.83593 8.58137C0.749979 8.49765 0.689168 8.39156 0.660381 8.27507C0.631593 8.1586 0.635975 8.03639 0.673033 7.92228C0.71009 7.80816 0.778343 7.7067 0.87007 7.62936C0.961798 7.55201 1.07334 7.50189 1.19207 7.48465L5.9055 6.79937C6.00871 6.78454 6.10676 6.74485 6.19119 6.6837C6.27564 6.62256 6.34395 6.54179 6.39022 6.44837L8.49879 2.17722C8.55197 2.0699 8.63409 1.97958 8.73585 1.91643C8.83763 1.85328 8.95501 1.81982 9.07479 1.81982C9.19455 1.81982 9.31195 1.85328 9.41372 1.91643C9.51549 1.97958 9.5976 2.0699 9.65079 2.17722L11.7606 6.44708C11.8068 6.54033 11.8749 6.621 11.9591 6.68215C12.0433 6.74328 12.1411 6.78306 12.2441 6.79808L16.9575 7.48337C17.0762 7.50061 17.1878 7.55073 17.2795 7.62807C17.3713 7.70541 17.4394 7.80688 17.4766 7.921C17.5136 8.03511 17.518 8.15731 17.4892 8.27379C17.4604 8.39027 17.3996 8.49637 17.3137 8.58007L13.9027 11.9049C13.8281 11.9776 13.7723 12.0673 13.74 12.1662C13.7078 12.2652 13.7001 12.3706 13.7175 12.4732L14.5237 17.1674C14.5443 17.2858 14.5313 17.4076 14.4861 17.519C14.4411 17.6304 14.3657 17.7269 14.2685 17.7976C14.1713 17.8684 14.0562 17.9104 13.9362 17.9189C13.8164 17.9275 13.6965 17.9023 13.5903 17.8462L9.37436 15.6297C9.28216 15.5812 9.17958 15.5559 9.07543 15.5559C8.97129 15.5559 8.8687 15.5812 8.7765 15.6297V15.631Z" fill="#FCBF02"/>
</g>
<mask id="mask2_19_1102" style="mask-type:luminance" maskUnits="userSpaceOnUse" x="18" y="0" width="18" height="19">
<path d="M36 0.919922H18V18.9199H36V0.919922Z" fill="white"/>
</mask>
<g mask="url(#mask2_19_1102)">
<path d="M26.7765 15.631L22.5594 17.8475C22.4531 17.9032 22.3334 17.9281 22.2137 17.9194C22.094 17.9107 21.9792 17.8686 21.8822 17.7979C21.7852 17.7273 21.7099 17.6309 21.6649 17.5197C21.6198 17.4085 21.6068 17.2868 21.6272 17.1687L22.4334 12.4758C22.451 12.373 22.4434 12.2674 22.4112 12.1681C22.3789 12.0689 22.323 11.979 22.2482 11.9062L18.8359 8.58137C18.75 8.49765 18.6892 8.39156 18.6604 8.27507C18.6316 8.1586 18.636 8.03639 18.673 7.92228C18.7101 7.80816 18.7783 7.7067 18.8701 7.62936C18.9618 7.55201 19.0733 7.50189 19.1921 7.48465L23.9055 6.79937C24.0087 6.78454 24.1068 6.74485 24.1912 6.6837C24.2756 6.62256 24.3439 6.54179 24.3902 6.44837L26.4988 2.17722C26.552 2.0699 26.6341 1.97958 26.7358 1.91643C26.8376 1.85328 26.955 1.81982 27.0748 1.81982C27.1946 1.81982 27.312 1.85328 27.4137 1.91643C27.5155 1.97958 27.5976 2.0699 27.6508 2.17722L29.7606 6.44708C29.8068 6.54033 29.8749 6.621 29.9591 6.68215C30.0433 6.74328 30.1411 6.78306 30.2441 6.79808L34.9575 7.48337C35.0762 7.50061 35.1878 7.55073 35.2795 7.62807C35.3713 7.70541 35.4394 7.80688 35.4766 7.921C35.5136 8.03511 35.518 8.15731 35.4892 8.27379C35.4604 8.39027 35.3996 8.49637 35.3137 8.58007L31.9027 11.9049C31.8281 11.9776 31.7723 12.0673 31.74 12.1662C31.7078 12.2652 31.7001 12.3706 31.7175 12.4732L32.5237 17.1674C32.5443 17.2858 32.5313 17.4076 32.4861 17.519C32.4411 17.6304 32.3657 17.7269 32.2685 17.7976C32.1713 17.8684 32.0562 17.9104 31.9362 17.9189C31.8164 17.9275 31.6965 17.9023 31.5903 17.8462L27.3744 15.6297C27.2822 15.5812 27.1796 15.5559 27.0754 15.5559C26.9713 15.5559 26.8687 15.5812 26.7765 15.6297V15.631Z" fill="#FAFAFA"/>
</g>
<mask id="mask3_19_1102" style="mask-type:luminance" maskUnits="userSpaceOnUse" x="18" y="0" width="18" height="19">
<path d="M36 0.919922H18V18.9199H36V0.919922Z" fill="white"/>
</mask>
<g mask="url(#mask3_19_1102)">
<path d="M26.7765 15.631L22.5594 17.8475C22.4531 17.9032 22.3334 17.9281 22.2137 17.9194C22.094 17.9107 21.9792 17.8686 21.8822 17.7979C21.7852 17.7273 21.7099 17.6309 21.6649 17.5197C21.6198 17.4085 21.6068 17.2868 21.6272 17.1687L22.4334 12.4758C22.451 12.373 22.4434 12.2674 22.4112 12.1681C22.3789 12.0689 22.323 11.979 22.2482 11.9062L18.8359 8.58137C18.75 8.49765 18.6892 8.39156 18.6604 8.27507C18.6316 8.1586 18.636 8.03639 18.673 7.92228C18.7101 7.80816 18.7783 7.7067 18.8701 7.62936C18.9618 7.55201 19.0733 7.50189 19.1921 7.48465L23.9055 6.79937C24.0087 6.78454 24.1068 6.74485 24.1912 6.6837C24.2756 6.62256 24.3439 6.54179 24.3902 6.44837L26.4988 2.17722C26.552 2.0699 26.6341 1.97958 26.7358 1.91643C26.8376 1.85328 26.955 1.81982 27.0748 1.81982C27.1946 1.81982 27.312 1.85328 27.4137 1.91643C27.5155 1.97958 27.5976 2.0699 27.6508 2.17722L29.7606 6.44708C29.8068 6.54033 29.8749 6.621 29.9591 6.68215C30.0433 6.74328 30.1411 6.78306 30.2441 6.79808L34.9575 7.48337C35.0762 7.50061 35.1878 7.55073 35.2795 7.62807C35.3713 7.70541 35.4394 7.80688 35.4766 7.921C35.5136 8.03511 35.518 8.15731 35.4892 8.27379C35.4604 8.39027 35.3996 8.49637 35.3137 8.58007L31.9027 11.9049C31.8281 11.9776 31.7723 12.0673 31.74 12.1662C31.7078 12.2652 31.7001 12.3706 31.7175 12.4732L32.5237 17.1674C32.5443 17.2858 32.5313 17.4076 32.4861 17.519C32.4411 17.6304 32.3657 17.7269 32.2685 17.7976C32.1713 17.8684 32.0562 17.9104 31.9362 17.9189C31.8164 17.9275 31.6965 17.9023 31.5903 17.8462L27.3744 15.6297C27.2822 15.5812 27.1796 15.5559 27.0754 15.5559C26.9713 15.5559 26.8687 15.5812 26.7765 15.6297V15.631Z" fill="#FCBF02"/>
</g>
<mask id="mask4_19_1102" style="mask-type:luminance" maskUnits="userSpaceOnUse" x="36" y="0" width="18" height="19">
<path d="M54 0.919922H36V18.9199H54V0.919922Z" fill="white"/>
</mask>
<g mask="url(#mask4_19_1102)">
<path d="M44.7765 15.631L40.5594 17.8475C40.4531 17.9032 40.3334 17.9281 40.2137 17.9194C40.094 17.9107 39.9792 17.8686 39.8822 17.7979C39.7852 17.7273 39.7099 17.6309 39.6649 17.5197C39.6198 17.4085 39.6068 17.2868 39.6272 17.1687L40.4334 12.4758C40.451 12.373 40.4434 12.2674 40.4112 12.1681C40.3789 12.0689 40.323 11.979 40.2482 11.9062L36.8359 8.58137C36.75 8.49765 36.6892 8.39156 36.6604 8.27507C36.6316 8.1586 36.636 8.03639 36.673 7.92228C36.7101 7.80816 36.7783 7.7067 36.8701 7.62936C36.9618 7.55201 37.0733 7.50189 37.1921 7.48465L41.9055 6.79937C42.0087 6.78454 42.1068 6.74485 42.1912 6.6837C42.2756 6.62256 42.3439 6.54179 42.3902 6.44837L44.4988 2.17722C44.552 2.0699 44.6341 1.97958 44.7358 1.91643C44.8376 1.85328 44.955 1.81982 45.0748 1.81982C45.1946 1.81982 45.312 1.85328 45.4137 1.91643C45.5155 1.97958 45.5976 2.0699 45.6508 2.17722L47.7606 6.44708C47.8068 6.54033 47.8749 6.621 47.9591 6.68215C48.0433 6.74328 48.1411 6.78306 48.2441 6.79808L52.9575 7.48337C53.0762 7.50061 53.1878 7.55073 53.2795 7.62807C53.3713 7.70541 53.4394 7.80688 53.4766 7.921C53.5136 8.03511 53.518 8.15731 53.4892 8.27379C53.4604 8.39027 53.3996 8.49637 53.3137 8.58007L49.9027 11.9049C49.8281 11.9776 49.7723 12.0673 49.74 12.1662C49.7078 12.2652 49.7001 12.3706 49.7175 12.4732L50.5237 17.1674C50.5443 17.2858 50.5313 17.4076 50.4861 17.519C50.4411 17.6304 50.3657 17.7269 50.2685 17.7976C50.1713 17.8684 50.0562 17.9104 49.9362 17.9189C49.8164 17.9275 49.6965 17.9023 49.5903 17.8462L45.3744 15.6297C45.2822 15.5812 45.1796 15.5559 45.0754 15.5559C44.9713 15.5559 44.8687 15.5812 44.7765 15.6297V15.631Z" fill="#FAFAFA"/>
</g>
<mask id="mask5_19_1102" style="mask-type:luminance" maskUnits="userSpaceOnUse" x="36" y="0" width="18" height="19">
<path d="M54 0.919922H36V18.9199H54V0.919922Z" fill="white"/>
</mask>
<g mask="url(#mask5_19_1102)">
<path d="M44.7765 15.631L40.5594 17.8475C40.4531 17.9032 40.3334 17.9281 40.2137 17.9194C40.094 17.9107 39.9792 17.8686 39.8822 17.7979C39.7852 17.7273 39.7099 17.6309 39.6649 17.5197C39.6198 17.4085 39.6068 17.2868 39.6272 17.1687L40.4334 12.4758C40.451 12.373 40.4434 12.2674 40.4112 12.1681C40.3789 12.0689 40.323 11.979 40.2482 11.9062L36.8359 8.58137C36.75 8.49765 36.6892 8.39156 36.6604 8.27507C36.6316 8.1586 36.636 8.03639 36.673 7.92228C36.7101 7.80816 36.7783 7.7067 36.8701 7.62936C36.9618 7.55201 37.0733 7.50189 37.1921 7.48465L41.9055 6.79937C42.0087 6.78454 42.1068 6.74485 42.1912 6.6837C42.2756 6.62256 42.3439 6.54179 42.3902 6.44837L44.4988 2.17722C44.552 2.0699 44.6341 1.97958 44.7358 1.91643C44.8376 1.85328 44.955 1.81982 45.0748 1.81982C45.1946 1.81982 45.312 1.85328 45.4137 1.91643C45.5155 1.97958 45.5976 2.0699 45.6508 2.17722L47.7606 6.44708C47.8068 6.54033 47.8749 6.621 47.9591 6.68215C48.0433 6.74328 48.1411 6.78306 48.2441 6.79808L52.9575 7.48337C53.0762 7.50061 53.1878 7.55073 53.2795 7.62807C53.3713 7.70541 53.4394 7.80688 53.4766 7.921C53.5136 8.03511 53.518 8.15731 53.4892 8.27379C53.4604 8.39027 53.3996 8.49637 53.3137 8.58007L49.9027 11.9049C49.8281 11.9776 49.7723 12.0673 49.74 12.1662C49.7078 12.2652 49.7001 12.3706 49.7175 12.4732L50.5237 17.1674C50.5443 17.2858 50.5313 17.4076 50.4861 17.519C50.4411 17.6304 50.3657 17.7269 50.2685 17.7976C50.1713 17.8684 50.0562 17.9104 49.9362 17.9189C49.8164 17.9275 49.6965 17.9023 49.5903 17.8462L45.3744 15.6297C45.2822 15.5812 45.1796 15.5559 45.0754 15.5559C44.9713 15.5559 44.8687 15.5812 44.7765 15.6297V15.631Z" fill="#FCBF02"/>
</g>
<mask id="mask6_19_1102" style="mask-type:luminance" maskUnits="userSpaceOnUse" x="54" y="0" width="18" height="19">
<path d="M72 0.919922H54V18.9199H72V0.919922Z" fill="white"/>
</mask>
<g mask="url(#mask6_19_1102)">
<path d="M62.7765 15.631L58.5594 17.8475C58.4531 17.9032 58.3334 17.9281 58.2137 17.9194C58.094 17.9107 57.9792 17.8686 57.8822 17.7979C57.7852 17.7273 57.7099 17.6309 57.6649 17.5197C57.6198 17.4085 57.6068 17.2868 57.6272 17.1687L58.4334 12.4758C58.451 12.373 58.4434 12.2674 58.4112 12.1681C58.3789 12.0689 58.323 11.979 58.2482 11.9062L54.8359 8.58137C54.75 8.49765 54.6892 8.39156 54.6604 8.27507C54.6316 8.1586 54.636 8.03639 54.673 7.92228C54.7101 7.80816 54.7783 7.7067 54.8701 7.62936C54.9618 7.55201 55.0733 7.50189 55.1921 7.48465L59.9055 6.79937C60.0087 6.78454 60.1068 6.74485 60.1912 6.6837C60.2756 6.62256 60.3439 6.54179 60.3902 6.44837L62.4988 2.17722C62.552 2.0699 62.6341 1.97958 62.7358 1.91643C62.8376 1.85328 62.955 1.81982 63.0748 1.81982C63.1946 1.81982 63.312 1.85328 63.4137 1.91643C63.5155 1.97958 63.5976 2.0699 63.6508 2.17722L65.7606 6.44708C65.8068 6.54033 65.8749 6.621 65.9591 6.68215C66.0433 6.74328 66.1411 6.78306 66.2441 6.79808L70.9575 7.48337C71.0762 7.50061 71.1878 7.55073 71.2795 7.62807C71.3713 7.70541 71.4394 7.80688 71.4766 7.921C71.5136 8.03511 71.518 8.15731 71.4892 8.27379C71.4604 8.39027 71.3996 8.49637 71.3137 8.58007L67.9027 11.9049C67.8281 11.9776 67.7723 12.0673 67.74 12.1662C67.7078 12.2652 67.7001 12.3706 67.7175 12.4732L68.5237 17.1674C68.5443 17.2858 68.5313 17.4076 68.4861 17.519C68.4411 17.6304 68.3657 17.7269 68.2685 17.7976C68.1713 17.8684 68.0562 17.9104 67.9362 17.9189C67.8164 17.9275 67.6965 17.9023 67.5903 17.8462L63.3744 15.6297C63.2822 15.5812 63.1796 15.5559 63.0754 15.5559C62.9713 15.5559 62.8687 15.5812 62.7765 15.6297V15.631Z" fill="#FAFAFA"/>
</g>
<mask id="mask7_19_1102" style="mask-type:luminance" maskUnits="userSpaceOnUse" x="54" y="0" width="18" height="19">
<path d="M72 0.919922H54V18.9199H72V0.919922Z" fill="white"/>
</mask>
<g mask="url(#mask7_19_1102)">
<path d="M62.7765 15.631L58.5594 17.8475C58.4531 17.9032 58.3334 17.9281 58.2137 17.9194C58.094 17.9107 57.9792 17.8686 57.8822 17.7979C57.7852 17.7273 57.7099 17.6309 57.6649 17.5197C57.6198 17.4085 57.6068 17.2868 57.6272 17.1687L58.4334 12.4758C58.451 12.373 58.4434 12.2674 58.4112 12.1681C58.3789 12.0689 58.323 11.979 58.2482 11.9062L54.8359 8.58137C54.75 8.49765 54.6892 8.39156 54.6604 8.27507C54.6316 8.1586 54.636 8.03639 54.673 7.92228C54.7101 7.80816 54.7783 7.7067 54.8701 7.62936C54.9618 7.55201 55.0733 7.50189 55.1921 7.48465L59.9055 6.79937C60.0087 6.78454 60.1068 6.74485 60.1912 6.6837C60.2756 6.62256 60.3439 6.54179 60.3902 6.44837L62.4988 2.17722C62.552 2.0699 62.6341 1.97958 62.7358 1.91643C62.8376 1.85328 62.955 1.81982 63.0748 1.81982C63.1946 1.81982 63.312 1.85328 63.4137 1.91643C63.5155 1.97958 63.5976 2.0699 63.6508 2.17722L65.7606 6.44708C65.8068 6.54033 65.8749 6.621 65.9591 6.68215C66.0433 6.74328 66.1411 6.78306 66.2441 6.79808L70.9575 7.48337C71.0762 7.50061 71.1878 7.55073 71.2795 7.62807C71.3713 7.70541 71.4394 7.80688 71.4766 7.921C71.5136 8.03511 71.518 8.15731 71.4892 8.27379C71.4604 8.39027 71.3996 8.49637 71.3137 8.58007L67.9027 11.9049C67.8281 11.9776 67.7723 12.0673 67.74 12.1662C67.7078 12.2652 67.7001 12.3706 67.7175 12.4732L68.5237 17.1674C68.5443 17.2858 68.5313 17.4076 68.4861 17.519C68.4411 17.6304 68.3657 17.7269 68.2685 17.7976C68.1713 17.8684 68.0562 17.9104 67.9362 17.9189C67.8164 17.9275 67.6965 17.9023 67.5903 17.8462L63.3744 15.6297C63.2822 15.5812 63.1796 15.5559 63.0754 15.5559C62.9713 15.5559 62.8687 15.5812 62.7765 15.6297V15.631Z" fill="#FCBF02"/>
</g>
<mask id="mask8_19_1102" style="mask-type:luminance" maskUnits="userSpaceOnUse" x="72" y="0" width="18" height="19">
<path d="M90 0.919922H72V18.9199H90V0.919922Z" fill="white"/>
</mask>
<g mask="url(#mask8_19_1102)">
<path d="M80.7765 15.631L76.5594 17.8475C76.4531 17.9032 76.3334 17.9281 76.2137 17.9194C76.094 17.9107 75.9792 17.8686 75.8822 17.7979C75.7852 17.7273 75.7099 17.6309 75.6649 17.5197C75.6198 17.4085 75.6068 17.2868 75.6272 17.1687L76.4334 12.4758C76.451 12.373 76.4434 12.2674 76.4112 12.1681C76.3789 12.0689 76.323 11.979 76.2482 11.9062L72.8359 8.58137C72.75 8.49765 72.6892 8.39156 72.6604 8.27507C72.6316 8.1586 72.636 8.03639 72.673 7.92228C72.7101 7.80816 72.7783 7.7067 72.8701 7.62936C72.9618 7.55201 73.0733 7.50189 73.1921 7.48465L77.9055 6.79937C78.0087 6.78454 78.1068 6.74485 78.1912 6.6837C78.2756 6.62256 78.3439 6.54179 78.3902 6.44837L80.4988 2.17722C80.552 2.0699 80.6341 1.97958 80.7358 1.91643C80.8376 1.85328 80.955 1.81982 81.0748 1.81982C81.1946 1.81982 81.312 1.85328 81.4137 1.91643C81.5155 1.97958 81.5976 2.0699 81.6508 2.17722L83.7606 6.44708C83.8068 6.54033 83.8749 6.621 83.9591 6.68215C84.0433 6.74328 84.1411 6.78306 84.2441 6.79808L88.9575 7.48337C89.0762 7.50061 89.1878 7.55073 89.2795 7.62807C89.3713 7.70541 89.4394 7.80688 89.4766 7.921C89.5136 8.03511 89.518 8.15731 89.4892 8.27379C89.4604 8.39027 89.3996 8.49637 89.3137 8.58007L85.9027 11.9049C85.8281 11.9776 85.7723 12.0673 85.74 12.1662C85.7078 12.2652 85.7001 12.3706 85.7175 12.4732L86.5237 17.1674C86.5443 17.2858 86.5313 17.4076 86.4861 17.519C86.4411 17.6304 86.3657 17.7269 86.2685 17.7976C86.1713 17.8684 86.0562 17.9104 85.9362 17.9189C85.8164 17.9275 85.6965 17.9023 85.5903 17.8462L81.3744 15.6297C81.2822 15.5812 81.1796 15.5559 81.0754 15.5559C80.9713 15.5559 80.8687 15.5812 80.7765 15.6297V15.631Z" fill="#FAFAFA"/>
</g>
<mask id="mask9_19_1102" style="mask-type:luminance" maskUnits="userSpaceOnUse" x="72" y="0" width="18" height="19">
<path d="M90 0.919922H72V18.9199H90V0.919922Z" fill="white"/>
</mask>
<g mask="url(#mask9_19_1102)">
<path d="M80.7765 15.631L76.5594 17.8475C76.4531 17.9032 76.3334 17.9281 76.2137 17.9194C76.094 17.9107 75.9792 17.8686 75.8822 17.7979C75.7852 17.7273 75.7099 17.6309 75.6649 17.5197C75.6198 17.4085 75.6068 17.2868 75.6272 17.1687L76.4334 12.4758C76.451 12.373 76.4434 12.2674 76.4112 12.1681C76.3789 12.0689 76.323 11.979 76.2482 11.9062L72.8359 8.58137C72.75 8.49765 72.6892 8.39156 72.6604 8.27507C72.6316 8.1586 72.636 8.03639 72.673 7.92228C72.7101 7.80816 72.7783 7.7067 72.8701 7.62936C72.9618 7.55201 73.0733 7.50189 73.1921 7.48465L77.9055 6.79937C78.0087 6.78454 78.1068 6.74485 78.1912 6.6837C78.2756 6.62256 78.3439 6.54179 78.3902 6.44837L80.4988 2.17722C80.552 2.0699 80.6341 1.97958 80.7358 1.91643C80.8376 1.85328 80.955 1.81982 81.0748 1.81982C81.1946 1.81982 81.312 1.85328 81.4137 1.91643C81.5155 1.97958 81.5976 2.0699 81.6508 2.17722L83.7606 6.44708C83.8068 6.54033 83.8749 6.621 83.9591 6.68215C84.0433 6.74328 84.1411 6.78306 84.2441 6.79808L88.9575 7.48337C89.0762 7.50061 89.1878 7.55073 89.2795 7.62807C89.3713 7.70541 89.4394 7.80688 89.4766 7.921C89.5136 8.03511 89.518 8.15731 89.4892 8.27379C89.4604 8.39027 89.3996 8.49637 89.3137 8.58007L85.9027 11.9049C85.8281 11.9776 85.7723 12.0673 85.74 12.1662C85.7078 12.2652 85.7001 12.3706 85.7175 12.4732L86.5237 17.1674C86.5443 17.2858 86.5313 17.4076 86.4861 17.519C86.4411 17.6304 86.3657 17.7269 86.2685 17.7976C86.1713 17.8684 86.0562 17.9104 85.9362 17.9189C85.8164 17.9275 85.6965 17.9023 85.5903 17.8462L81.3744 15.6297C81.2822 15.5812 81.1796 15.5559 81.0754 15.5559C80.9713 15.5559 80.8687 15.5812 80.7765 15.6297V15.631Z" fill="#FCBF02"/>
</g>
</svg>
