<svg width="56" height="56" viewBox="0 0 56 56" fill="none" xmlns="http://www.w3.org/2000/svg">
<path d="M37.6289 1.75098H18.3857C18.1537 1.75098 17.9311 1.65879 17.767 1.49469C17.6029 1.3306 17.5107 1.10804 17.5107 0.875977C17.5107 0.643912 17.6029 0.421352 17.767 0.257258C17.9311 0.0931638 18.1537 0.000976563 18.3857 0.000976562H37.6289C37.861 0.000976563 38.0835 0.0931638 38.2476 0.257258C38.4117 0.421352 38.5039 0.643912 38.5039 0.875977C38.5039 1.10804 38.4117 1.3306 38.2476 1.49469C38.0835 1.65879 37.861 1.75098 37.6289 1.75098Z" fill="#181D38"/>
<path d="M28.0019 30.625C27.8182 30.625 27.6392 30.5673 27.4901 30.4599C27.341 30.3526 27.2295 30.2011 27.1713 30.0269L17.5548 1.15271C17.4822 0.932651 17.4998 0.692784 17.6038 0.485682C17.7077 0.278579 17.8896 0.121136 18.1094 0.0478577C18.3292 -0.0254205 18.5691 -0.0085561 18.7766 0.0947549C18.984 0.198066 19.142 0.379396 19.216 0.599004L28.8324 29.4731C28.9055 29.6934 28.8883 29.9337 28.7845 30.1413C28.6807 30.3489 28.4988 30.5069 28.2787 30.5806C28.1893 30.6098 28.0959 30.6248 28.0019 30.625Z" fill="#181D38"/>
<path d="M28.0013 30.6252C27.7912 30.6253 27.588 30.5497 27.429 30.4124C27.27 30.275 27.1657 30.085 27.1352 29.8771C27.1048 29.6692 27.1501 29.4573 27.263 29.2801C27.3759 29.1029 27.5488 28.9722 27.7501 28.9119L45.2449 23.6628C45.3551 23.6296 45.4707 23.6184 45.5852 23.6299C45.6997 23.6414 45.8108 23.6753 45.9121 23.7298C46.0135 23.7843 46.1031 23.8582 46.1758 23.9474C46.2485 24.0365 46.303 24.1391 46.336 24.2494C46.3691 24.3596 46.38 24.4752 46.3683 24.5897C46.3566 24.7042 46.3224 24.8152 46.2677 24.9164C46.2131 25.0177 46.139 25.1071 46.0497 25.1797C45.9604 25.2523 45.8576 25.3065 45.7473 25.3393L28.2525 30.5884C28.1709 30.6127 28.0863 30.6251 28.0013 30.6252Z" fill="#181D38"/>
<path d="M36.7447 27.9856C36.561 27.9856 36.3819 27.9278 36.2329 27.8205C36.0838 27.7132 35.9723 27.5616 35.9141 27.3874L27.1761 1.15281C27.1043 0.93297 27.1224 0.69366 27.2265 0.487133C27.3305 0.280606 27.5121 0.12364 27.7315 0.0505077C27.9508 -0.0226243 28.1903 -0.00598107 28.3974 0.0968033C28.6046 0.199588 28.7627 0.380163 28.8372 0.599102L37.5752 26.8337C37.6483 27.054 37.6311 27.2943 37.5273 27.5019C37.4235 27.7095 37.2416 27.8675 37.0215 27.9412C36.9321 27.9704 36.8387 27.9854 36.7447 27.9856ZM45.4964 25.3769C45.3127 25.3769 45.1336 25.3191 44.9846 25.2118C44.8355 25.1044 44.724 24.9529 44.6658 24.7787L36.7976 1.15284C36.7243 0.932579 36.7414 0.692208 36.8453 0.484583C36.9491 0.276958 37.1312 0.119079 37.3514 0.0456644C37.5717 -0.0277503 37.812 -0.0106894 38.0197 0.0930952C38.2274 0.19688 38.3853 0.37889 38.4588 0.599102L46.3269 24.225C46.4 24.4453 46.3828 24.6856 46.279 24.8931C46.1752 25.1007 45.9933 25.2587 45.7732 25.3324C45.6838 25.3616 45.5904 25.3766 45.4964 25.3769Z" fill="#181D38"/>
<path d="M37.615 1.75098H18.3718C18.1398 1.75098 17.9172 1.65879 17.7531 1.49469C17.589 1.3306 17.4968 1.10804 17.4968 0.875977C17.4968 0.643912 17.589 0.421352 17.7531 0.257258C17.9172 0.0931638 18.1398 0.000976563 18.3718 0.000976562H37.615C37.8471 0.000976563 38.0696 0.0931638 38.2337 0.257258C38.3978 0.421352 38.49 0.643912 38.49 0.875977C38.49 1.10804 38.3978 1.3306 38.2337 1.49469C38.0696 1.65879 37.8471 1.75098 37.615 1.75098ZM27.9986 30.6251C27.9135 30.625 27.8289 30.6126 27.7473 30.5884L10.2525 25.3392C10.1422 25.3064 10.0395 25.2522 9.95016 25.1796C9.86086 25.107 9.78675 25.0176 9.73207 24.9163C9.6774 24.8151 9.64322 24.7041 9.6315 24.5896C9.61979 24.4751 9.63076 24.3595 9.66379 24.2493C9.69682 24.139 9.75127 24.0364 9.82401 23.9473C9.89675 23.8581 9.98636 23.7842 10.0877 23.7297C10.1891 23.6752 10.3001 23.6413 10.4146 23.6298C10.5291 23.6183 10.6448 23.6295 10.7549 23.6627L28.2498 28.9119C28.4511 28.9721 28.624 29.1028 28.7369 29.28C28.8497 29.4572 28.8951 29.6692 28.8646 29.8771C28.8341 30.0849 28.7298 30.2749 28.5708 30.4123C28.4118 30.5496 28.2087 30.6252 27.9986 30.6251Z" fill="#181D38"/>
<path d="M19.2548 27.9856C19.1608 27.9854 19.0673 27.9704 18.978 27.9412C18.7579 27.8675 18.576 27.7095 18.4722 27.5019C18.3684 27.2943 18.3512 27.054 18.4243 26.8337L22.3583 15.0221C22.4323 14.8025 22.5903 14.6212 22.7977 14.5179C23.0051 14.4146 23.2451 14.3977 23.4649 14.471C23.6847 14.5442 23.8666 14.7017 23.9705 14.9088C24.0745 15.1159 24.0921 15.3558 24.0195 15.5758L20.0854 27.3875C20.0272 27.5617 19.9157 27.7132 19.7666 27.8205C19.6175 27.9279 19.4385 27.9856 19.2548 27.9856ZM10.5031 25.3769C10.4091 25.3767 10.3156 25.3617 10.2263 25.3324C10.0062 25.2588 9.82428 25.1008 9.72048 24.8932C9.61668 24.6856 9.59945 24.4453 9.67255 24.225L17.5407 0.599125C17.6141 0.378846 17.7721 0.196758 17.9797 0.092917C18.1874 -0.0109235 18.4279 -0.02801 18.6481 0.0454163C18.8684 0.118843 19.0505 0.276767 19.1543 0.484448C19.2582 0.692129 19.2753 0.932555 19.2018 1.15283L11.3337 24.7787C11.2755 24.9529 11.164 25.1044 11.0149 25.2118C10.8658 25.3191 10.6868 25.3769 10.5031 25.3769ZM28.0065 55.9993C25.5837 55.9993 23.2153 55.2808 21.2008 53.9348C19.1863 52.5887 17.6162 50.6755 16.689 48.4371C15.7618 46.1987 15.5192 43.7357 15.9919 41.3594C16.4646 38.9831 17.6313 36.8004 19.3445 35.0872C21.0577 33.374 23.2404 32.2073 25.6167 31.7346C27.9929 31.262 30.456 31.5046 32.6944 32.4317C34.9328 33.3589 36.846 34.929 38.192 36.9435C39.5381 38.958 40.2565 41.3264 40.2565 43.7493C40.2529 46.997 38.9611 50.1108 36.6646 52.4073C34.368 54.7038 31.2543 55.9956 28.0065 55.9993ZM28.0065 33.2493C25.9298 33.2493 23.8998 33.8651 22.173 35.0188C20.4463 36.1726 19.1005 37.8125 18.3058 39.7311C17.5111 41.6497 17.3031 43.7609 17.7083 45.7977C18.1134 47.8345 19.1135 49.7054 20.5819 51.1739C22.0504 52.6423 23.9213 53.6424 25.9581 54.0475C27.9949 54.4526 30.1061 54.2447 32.0247 53.45C33.9433 52.6553 35.5832 51.3095 36.737 49.5827C37.8907 47.856 38.5065 45.826 38.5065 43.7493C38.5035 40.9654 37.3963 38.2965 35.4278 36.328C33.4593 34.3595 30.7904 33.2523 28.0065 33.2493Z" fill="#181D38"/>
<path d="M28.0019 33.2509C27.8869 33.2509 27.7731 33.2284 27.6669 33.1844C27.5608 33.1405 27.4643 33.076 27.383 32.9947C27.3017 32.9135 27.2373 32.817 27.1933 32.7108C27.1494 32.6046 27.1268 32.4908 27.1269 32.3759V29.75C27.1269 29.5179 27.2191 29.2954 27.3832 29.1313C27.5472 28.9672 27.7698 28.875 28.0019 28.875C28.2339 28.875 28.4565 28.9672 28.6206 29.1313C28.7847 29.2954 28.8769 29.5179 28.8769 29.75V32.3759C28.8769 32.4908 28.8544 32.6046 28.8104 32.7108C28.7665 32.817 28.702 32.9135 28.6207 32.9947C28.5395 33.076 28.443 33.1405 28.3368 33.1844C28.2306 33.2284 28.1168 33.2509 28.0019 33.2509ZM28.007 51.6241C26.1513 51.6222 24.3722 50.8841 23.06 49.572C21.7478 48.2598 21.0098 46.4807 21.0078 44.625C21.0078 44.3929 21.1 44.1704 21.2641 44.0063C21.4282 43.8422 21.6507 43.75 21.8828 43.75C22.1149 43.75 22.3374 43.8422 22.5015 44.0063C22.6656 44.1704 22.7578 44.3929 22.7578 44.625C22.7578 46.0172 23.3108 47.3523 24.2952 48.3367C25.2796 49.3211 26.6148 49.8741 28.0069 49.8741C29.3991 49.8741 30.7342 49.3211 31.7186 48.3367C32.703 47.3523 33.2561 46.0172 33.2561 44.625C33.2561 44.3929 33.3483 44.1704 33.5123 44.0063C33.6764 43.8422 33.899 43.75 34.1311 43.75C34.3631 43.75 34.5857 43.8422 34.7498 44.0063C34.9139 44.1704 35.0061 44.3929 35.0061 44.625C35.0041 46.4807 34.2661 48.2598 32.9539 49.572C31.6417 50.8841 29.8626 51.6222 28.007 51.6241Z" fill="#181D38"/>
<path d="M28.0068 51.6241C27.8919 51.6242 27.7781 51.6016 27.6719 51.5577C27.5657 51.5137 27.4692 51.4493 27.388 51.368C27.3067 51.2867 27.2423 51.1902 27.1983 51.0841C27.1544 50.9779 27.1318 50.8641 27.1318 50.7491V39.375C27.1318 39.1429 27.224 38.9204 27.3881 38.7563C27.5522 38.5922 27.7748 38.5 28.0068 38.5C28.2389 38.5 28.4615 38.5922 28.6256 38.7563C28.7896 38.9204 28.8818 39.1429 28.8818 39.375V50.7491C28.8819 50.8641 28.8593 50.9779 28.8154 51.0841C28.7714 51.1902 28.707 51.2867 28.6257 51.368C28.5444 51.4493 28.448 51.5137 28.3418 51.5577C28.2356 51.6016 28.1218 51.6242 28.0068 51.6241Z" fill="#181D38"/>
<path d="M28 40.25C27.4808 40.25 26.9733 40.096 26.5416 39.8076C26.1099 39.5192 25.7735 39.1092 25.5748 38.6295C25.3761 38.1499 25.3242 37.6221 25.4254 37.1129C25.5267 36.6037 25.7767 36.136 26.1438 35.7688C26.511 35.4017 26.9787 35.1517 27.4879 35.0504C27.9971 34.9492 28.5249 35.0011 29.0045 35.1998C29.4842 35.3985 29.8942 35.735 30.1826 36.1666C30.471 36.5983 30.625 37.1058 30.625 37.625C30.6242 38.321 30.3474 38.9882 29.8553 39.4803C29.3632 39.9724 28.696 40.2492 28 40.25ZM28 36.75C27.8269 36.75 27.6578 36.8013 27.5139 36.8975C27.37 36.9936 27.2578 37.1303 27.1916 37.2902C27.1254 37.45 27.1081 37.626 27.1418 37.7957C27.1756 37.9654 27.2589 38.1213 27.3813 38.2437C27.5037 38.3661 27.6596 38.4494 27.8293 38.4832C27.999 38.517 28.175 38.4996 28.3348 38.4334C28.4947 38.3672 28.6314 38.255 28.7275 38.1111C28.8237 37.9672 28.875 37.7981 28.875 37.625C28.8748 37.393 28.7826 37.1705 28.6185 37.0065C28.4545 36.8424 28.232 36.7502 28 36.75ZM30.625 43.75H25.375C25.1429 43.75 24.9204 43.6578 24.7563 43.4937C24.5922 43.3296 24.5 43.1071 24.5 42.875C24.5 42.6429 24.5922 42.4204 24.7563 42.2563C24.9204 42.0922 25.1429 42 25.375 42H30.625C30.8571 42 31.0796 42.0922 31.2437 42.2563C31.4078 42.4204 31.5 42.6429 31.5 42.875C31.5 43.1071 31.4078 43.3296 31.2437 43.4937C31.0796 43.6578 30.8571 43.75 30.625 43.75Z" fill="#181D38"/>
</svg>
