<svg width="50" height="48" viewBox="0 0 50 48" fill="none" xmlns="http://www.w3.org/2000/svg">
<path d="M37.6474 10.3001H7.98234C7.20686 10.3001 6.57812 9.67141 6.57812 8.89592C6.57812 8.12043 7.20686 7.4917 7.98234 7.4917H37.6474C38.4229 7.4917 39.0517 8.12043 39.0517 8.89592C39.0517 9.67141 38.4229 10.3001 37.6474 10.3001Z" fill="#181D38" stroke="white" stroke-width="0.5"/>
<path d="M37.6474 17.358H7.98234C7.20686 17.358 6.57812 16.7293 6.57812 15.9538C6.57812 15.1783 7.20686 14.5496 7.98234 14.5496H37.6474C38.4229 14.5496 39.0517 15.1783 39.0517 15.9538C39.0517 16.7293 38.4229 17.358 37.6474 17.358Z" fill="#181D38" stroke="white" stroke-width="0.5"/>
<path d="M7.98234 21.6077H23.7207C24.4962 21.6077 25.1249 22.2364 25.1249 23.0119C25.1249 23.7874 24.4962 24.4161 23.7207 24.4161H7.98234C7.20686 24.4161 6.57812 23.7874 6.57812 23.0119C6.57812 22.2364 7.20686 21.6077 7.98234 21.6077Z" fill="#181D38" stroke="white" stroke-width="0.5"/>
<path d="M42.0501 47.5618L42.2769 47.4566L38.9266 40.2296L38.8583 40.0821L38.6958 40.0847L38.6869 40.0848L38.674 40.085L38.5172 40.0875L38.4512 40.2298L35.101 47.4566C35.0147 47.6429 34.8814 47.717 34.7654 47.717C34.6725 47.717 34.5597 47.6712 34.4544 47.5544L34.4544 47.5544L32.7444 45.6585L32.7443 45.6584C32.5383 45.4302 32.1997 45.3006 31.8799 45.3006C31.7423 45.3006 31.6047 45.3248 31.4822 45.376L27.9226 46.8663L42.0501 47.5618ZM42.0501 47.5618L42.2769 47.4567C42.3633 47.6429 42.4964 47.717 42.6127 47.717C42.7055 47.717 42.8182 47.6712 42.9235 47.5543L42.9236 47.5542L44.6335 45.6586L44.6335 45.6585C44.8396 45.4302 45.1782 45.3006 45.4979 45.3006C45.6354 45.3006 45.7732 45.3248 45.8956 45.376L45.7991 45.6066L45.8957 45.376L49.4552 46.8663L42.0501 47.5618ZM45.2365 37.8137L45.4901 37.7125L47.1635 37.0447C47.1635 37.0447 47.1635 37.0447 47.1635 37.0447C47.3312 36.9777 47.4978 36.8412 47.6268 36.6636C47.7559 36.4861 47.8344 36.2855 47.8463 36.1053L47.9888 33.9581C48.0026 33.7504 48.0603 33.4987 48.1366 33.264C48.2128 33.0293 48.3141 32.7918 48.425 32.6158L49.5714 30.795L49.5714 30.7949C49.6676 30.6422 49.7221 30.4338 49.7221 30.2142C49.7221 29.9947 49.6677 29.7862 49.5715 29.6334L48.4249 27.8126L48.4249 27.8125C48.3142 27.6366 48.213 27.399 48.1367 27.1643C48.0605 26.9296 48.0027 26.6779 47.9889 26.4703L47.8465 24.3232C47.8465 24.3231 47.8465 24.3231 47.8465 24.3231C47.8255 24.0068 47.6006 23.6459 47.3063 23.4584L47.1906 23.3848V23.2476V3.3414C47.1906 1.65513 45.8184 0.282959 44.1322 0.282959H3.30832C1.62218 0.282959 0.25 1.65513 0.25 3.3414V31.6807C0.25 33.3669 1.62217 34.739 3.30832 34.739H29.3301H29.564L29.5795 34.9725L29.6547 36.1054C29.6547 36.1054 29.6547 36.1054 29.6547 36.1054C29.6667 36.2856 29.7452 36.4862 29.8742 36.6637C30.0032 36.8412 30.1698 36.9777 30.3375 37.0447C30.3375 37.0447 30.3375 37.0447 30.3375 37.0447L31.9086 37.6717L32.1622 37.7729L32.0391 38.0166L27.6935 46.6204C27.6935 46.6205 27.6935 46.6205 27.6935 46.6205C27.6396 46.7273 27.6285 46.796 27.628 46.8333C27.6276 46.8684 27.6362 46.8837 27.6391 46.8883L27.6392 46.8886C27.6415 46.8922 27.6462 46.8984 27.6542 46.9035C27.66 46.9072 27.6778 46.9173 27.7188 46.9173C27.7633 46.9173 27.8306 46.9047 27.9224 46.8664L45.2365 37.8137ZM45.2365 37.8137L45.3596 38.0574M45.2365 37.8137L45.3596 38.0574M45.3596 38.0574L49.6844 46.6204C49.7384 46.7273 49.7495 46.796 49.7499 46.8333C49.7504 46.8683 49.7417 46.8836 49.7389 46.8881L49.7387 46.8884M45.3596 38.0574L49.7387 46.8884M49.7387 46.8884C49.7364 46.8922 49.7316 46.8984 49.7236 46.9035C49.7178 46.9072 49.7001 46.9173 49.6591 46.9173C49.6145 46.9173 49.5472 46.9047 49.4554 46.8664L49.7387 46.8884ZM3.05832 3.0914H3.30832H44.132H44.382L44.382 3.3414L44.3822 21.4966L44.3823 22.1885L43.94 21.6565L42.6468 20.1006C42.4634 19.8801 42.105 19.716 41.7635 19.716C41.6833 19.716 41.6092 19.7252 41.5428 19.7421L39.4559 20.2733L39.4558 20.2733C39.2611 20.3228 38.9991 20.3444 38.7504 20.3444C38.5017 20.3444 38.2397 20.3228 38.045 20.2733L38.0449 20.2733L35.9581 19.7421C35.8918 19.7252 35.8177 19.716 35.7375 19.716C35.3959 19.716 35.0376 19.88 34.8542 20.1006L3.05832 3.0914ZM3.05832 3.0914V3.3414V31.6806V31.9306H3.30832H28.192H28.6448L28.4036 31.5474L27.9299 30.795L27.9298 30.7949C27.8336 30.6422 27.7791 30.4338 27.7791 30.2142C27.7791 29.9947 27.8336 29.7862 27.9298 29.6335L27.9299 29.6334L29.0762 27.8126C29.0762 27.8126 29.0763 27.8126 29.0763 27.8126C29.1872 27.6366 29.2884 27.3991 29.3646 27.1644C29.4409 26.9297 29.4985 26.6779 29.5123 26.4702L29.6548 24.3231L29.6548 24.3231C29.6667 24.143 29.7452 23.9424 29.8743 23.7649C30.0033 23.5874 30.17 23.4508 30.3377 23.3839L30.3377 23.3839L32.3369 22.5858C32.5301 22.5087 32.7516 22.3761 32.9512 22.2311C33.1507 22.086 33.3452 21.9163 33.4782 21.7562C33.4782 21.7561 33.4782 21.7561 33.4783 21.7561L34.8542 20.1006L3.05832 3.0914ZM31.467 30.2142C31.467 34.2368 34.7279 37.4976 38.7504 37.4976C42.773 37.4976 46.0341 34.2368 46.034 30.2142C46.034 26.1916 42.773 22.9308 38.7504 22.9308C34.7279 22.9308 31.467 26.1916 31.467 30.2142Z" fill="#181D38" stroke="white" stroke-width="0.5"/>
</svg>
