<svg width="34" height="33" viewBox="0 0 34 33" fill="none" xmlns="http://www.w3.org/2000/svg">
<path d="M16.9992 31.5439C17.2996 31.5439 17.5437 31.4501 17.7315 31.2623C17.9193 31.0745 18.0132 30.8304 18.0132 30.5299V5.63061L24.6605 12.2779C24.8858 12.5033 25.1487 12.6159 25.4492 12.6159C25.7496 12.6159 25.9937 12.5033 26.1815 12.2779C26.3693 12.0526 26.4632 11.7897 26.4632 11.4893C26.4632 11.1888 26.388 10.9259 26.2378 10.7006L17.7878 2.25061C17.5625 2.10039 17.2996 2.02528 16.9992 2.02528C16.6987 2.02528 16.4358 2.10039 16.2105 2.25061L7.76049 10.7006C7.61027 10.9259 7.53516 11.1888 7.53516 11.4893C7.53516 11.7897 7.62905 12.0526 7.81682 12.2779C8.0046 12.5033 8.24871 12.6159 8.54916 12.6159C8.8496 12.6159 9.11249 12.5033 9.33782 12.2779L15.9852 5.63061V30.5299C15.9852 30.8304 16.079 31.0745 16.2668 31.2623C16.4546 31.4501 16.6987 31.5439 16.9992 31.5439Z" fill="#FFFAE7"/>
</svg>
