<svg width="32" height="33" viewBox="0 0 32 33" fill="none" xmlns="http://www.w3.org/2000/svg">
<rect x="0.5" y="0.870117" width="31" height="31" rx="3.5" fill="#38ADDF"/>
<rect x="0.5" y="0.870117" width="31" height="31" rx="3.5" stroke="#38ADDF"/>
<path d="M22.3438 13.1201C22.3438 13.2764 22.3438 13.4014 22.3438 13.5576C22.3438 17.9014 19.0625 22.8701 13.0312 22.8701C11.1562 22.8701 9.4375 22.3389 8 21.4014C8.25 21.4326 8.5 21.4639 8.78125 21.4639C10.3125 21.4639 11.7188 20.9326 12.8438 20.0576C11.4062 20.0264 10.1875 19.0889 9.78125 17.7764C10 17.8076 10.1875 17.8389 10.4062 17.8389C10.6875 17.8389 11 17.7764 11.25 17.7139C9.75 17.4014 8.625 16.0889 8.625 14.4951V14.4639C9.0625 14.7139 9.59375 14.8389 10.125 14.8701C9.21875 14.2764 8.65625 13.2764 8.65625 12.1514C8.65625 11.5264 8.8125 10.9639 9.09375 10.4951C10.7188 12.4639 13.1562 13.7764 15.875 13.9326C15.8125 13.6826 15.7812 13.4326 15.7812 13.1826C15.7812 11.3701 17.25 9.90137 19.0625 9.90137C20 9.90137 20.8438 10.2764 21.4688 10.9326C22.1875 10.7764 22.9062 10.4951 23.5312 10.1201C23.2812 10.9014 22.7812 11.5264 22.0938 11.9326C22.75 11.8701 23.4062 11.6826 23.9688 11.4326C23.5312 12.0889 22.9688 12.6514 22.3438 13.1201Z" fill="white"/>
</svg>
